<?xml version="1.0" encoding="UTF-8" standalone="no"?><!DOCTYPE svg PUBLIC "-//W3C//DTD SVG 1.1//EN" "http://www.w3.org/Graphics/SVG/1.1/DTD/svg11.dtd"><svg width="100%" height="100%" viewBox="0 0 446 259" version="1.1" xmlns="http://www.w3.org/2000/svg" xmlns:xlink="http://www.w3.org/1999/xlink" xml:space="preserve" xmlns:serif="http://www.serif.com/" style="fill-rule:evenodd;clip-rule:evenodd;stroke-linejoin:round;stroke-miterlimit:2;"><rect id="arrow" x="-0" y="-0" width="443.299" height="255.56" style="fill:none;"/><path d="M366.033,117.591c-10.494,-6.015 -20.695,-13.953 -29.588,-24.424c-17.033,-20.056 -29.494,-49.406 -29.494,-92.597l19.106,0c-0,37.342 10.224,62.889 24.951,80.23c25.744,30.314 65.101,35.88 82.794,36.791l9.316,-0l0,20.416l-9.949,0c-18.053,1.021 -56.81,6.833 -82.22,36.753c-14.727,17.341 -24.951,42.888 -24.951,80.23l-19.106,-0c0,-43.191 12.461,-72.541 29.494,-92.597c8.873,-10.448 19.053,-18.375 29.526,-24.386l-365.731,0l-0,-20.416l365.852,-0Z"/></svg>