<?xml version="1.0" encoding="UTF-8" standalone="no"?><!DOCTYPE svg PUBLIC "-//W3C//DTD SVG 1.1//EN" "http://www.w3.org/Graphics/SVG/1.1/DTD/svg11.dtd"><svg width="100%" height="100%" viewBox="0 0 3047 1081" version="1.1" xmlns="http://www.w3.org/2000/svg" xmlns:xlink="http://www.w3.org/1999/xlink" xml:space="preserve" xmlns:serif="http://www.serif.com/" style="fill-rule:evenodd;clip-rule:evenodd;stroke-linejoin:round;stroke-miterlimit:2;"><rect id="Artboard1" x="0" y="0" width="3046.73" height="1080.29" style="fill:none;"/><clipPath id="_clip1"><rect x="0" y="0" width="3046.73" height="1080.29"/></clipPath><g clip-path="url(#_clip1)"><rect id="arrow" x="370.833" y="-122.203" width="1847.08" height="1064.83" style="fill:none;"/><path d="M335.862,581.514c43.725,25.063 86.23,58.138 123.284,101.767c70.971,83.566 122.891,205.858 122.891,385.821l-79.608,-0c0,-155.592 -42.6,-262.038 -103.962,-334.292c-107.267,-126.308 -271.255,-149.5 -344.975,-153.296l-38.817,0l-0,-85.067l41.454,0c75.221,-4.254 236.708,-28.47 342.583,-153.137c61.363,-72.254 103.963,-178.7 103.963,-334.292l79.608,0c0,179.963 -51.921,302.254 -122.891,385.821c-36.971,43.533 -79.388,76.563 -123.025,101.608l2699.61,0l-0,85.067l-2700.12,0Z"/></g></svg>