<?xml version="1.0" encoding="UTF-8" standalone="no"?><!DOCTYPE svg PUBLIC "-//W3C//DTD SVG 1.1//EN" "http://www.w3.org/Graphics/SVG/1.1/DTD/svg11.dtd"><svg width="100%" height="100%" viewBox="0 0 3047 1081" version="1.1" xmlns="http://www.w3.org/2000/svg" xmlns:xlink="http://www.w3.org/1999/xlink" xml:space="preserve" xmlns:serif="http://www.serif.com/" style="fill-rule:evenodd;clip-rule:evenodd;stroke-linejoin:round;stroke-miterlimit:2;"><rect id="Artboard1" x="0" y="0" width="3046.73" height="1080.29" style="fill:none;"/><clipPath id="_clip1"><rect x="0" y="0" width="3046.73" height="1080.29"/></clipPath><g clip-path="url(#_clip1)"><rect id="arrow" x="370.833" y="-122.203" width="1847.08" height="1064.83" style="fill:none;"/><path d="M2714.79,496.606c-43.725,-25.063 -86.229,-58.138 -123.283,-101.767c-70.971,-83.567 -122.892,-205.858 -122.892,-385.821l79.608,0c0,155.592 42.6,262.038 103.963,334.292c107.267,126.308 271.254,149.5 344.975,153.296l38.817,-0l-0,85.066l-41.455,0c-75.22,4.255 -236.708,28.471 -342.583,153.138c-61.362,72.254 -103.962,178.7 -103.962,334.292l-79.609,-0c0,-179.963 51.921,-302.255 122.892,-385.821c36.971,-43.534 79.387,-76.563 123.025,-101.609l-2699.61,0l-0,-85.066l2700.12,-0Z"/></g></svg>